<?xml version="1.0" standalone="no"?><!DOCTYPE svg PUBLIC "-//W3C//DTD SVG 1.1//EN" "http://www.w3.org/Graphics/SVG/1.1/DTD/svg11.dtd"><svg t="1714965241269" class="icon" viewBox="0 0 1024 1024" version="1.1" xmlns="http://www.w3.org/2000/svg" p-id="15470" width="128" height="128" xmlns:xlink="http://www.w3.org/1999/xlink"><path d="M512 32C246.9 32 32 246.9 32 512s214.9 480 480 480 480-214.9 480-480S777.1 32 512 32z m132 656.3q-47.9 33.64-127.85 33.7-74 0-125.26-30.06T332 604.23h91.85c5.18 13.86 14.55 24.89 28 32.88 18.86 11.15 42.78 16.79 72 16.79 25.27 0 45.25-4.81 60.16-14.44s22.32-22.54 22.32-38.51c0-23.48-18.74-39.33-56.34-47.32L459.11 536q-113.73-24-113.67-108.14 0-56.18 45-91T510.4 302c47.1 0 86.3 10.68 117.37 31.7s50.55 48.73 58.44 82.9h-88.53a70.54 70.54 0 0 0-25.15-30.41q-25.15-17.61-64.73-17.61-36.25 0-55.11 14.79c-12.7 9.86-19 22.31-19 37.22q0 33.64 50.55 44.85l99.25 20.9q51.23 10.39 79.89 38c19.11 18.43 28.6 41.45 28.6 69.28Q692 654.6 644 688.3z" fill="#1296db" p-id="15471"></path></svg>